#!OML:ASF X:\für Bonn\!DataBase\2005_08_10_Bjorn_Final\c3d\bjorn.ASF
:FULLY-SPECIFIED
:DEGREES
121
root -28.7991 18.6708 -16.9466 -1431.85 -3.64604 -5.4982
lowerback 0.599428 -2.50967 2.7724
upperback 9.26979 -3.58634 0.851171
thorax 9.33005 -1.58992 -0.907918
lowerneck -2.2969 10.1436 2.574
upperneck -1.47407 13.4968 -8.16502
head 0.712988 6.73254 -2.75882
rclavicle -5.84427e-014 4.21423e-014
rhumerus -56.3653 1.83769 -89.7033
rradius 47.146
rwrist -2.97093
rhand -17.8103 21.5233
rfingers 7.12502
rthumb 8.45344 -8.28748
lclavicle -5.84427e-014 4.21423e-014
lhumerus -20.5086 -36.5291 89.0589
lradius 102.562
lwrist -7.38732
lhand -46.7153 -23.1835
lfingers 7.12502
lthumb -19.4336 5.86537
rfemur -49.396 -8.11005 17.0153
rtibia 56.2168
rfoot -7.77528 18.209
rtoes -25.0589
lfemur 12.7031 -8.33466 -19.2155
ltibia 21.509
lfoot -8.53812 -9.71295
ltoes -17.3178
122
root -28.8186 18.7107 -16.7327 -1431.8 -3.31926 -5.81259
lowerback 0.419432 -2.58627 3.2353
upperback 9.16957 -3.72629 0.999751
thorax 9.30522 -1.62932 -1.02326
lowerneck -2.30615 10.286 2.67878
upperneck -1.00699 13.7142 -8.34206
head 0.898785 6.82885 -2.80999
rclavicle -1.53064e-014 -2.38542e-015
rhumerus -56.4724 1.66695 -89.3957
rradius 47.843
rwrist -3.4589
rhand -18.0569 21.7981
rfingers 7.12502
rthumb 8.21544 -8.02216
lclavicle -1.53064e-014 -2.38542e-015
lhumerus -21.3076 -37.0306 89.3587
lradius 102.301
lwrist -7.85355
lhand -46.5479 -22.7366
lfingers 7.12502
lthumb -19.2726 6.32841
rfemur -48.7499 -8.21696 17.286
rtibia 55.2703
rfoot -7.01485 18.3308
rtoes -24.5775
lfemur 12.6129 -8.44749 -18.8307
ltibia 22.4218
lfoot -6.6467 -9.52834
ltoes -18.328
123
root -28.8387 18.747 -16.5164 -1431.78 -2.99998 -6.11577
lowerback 0.268581 -2.65893 3.70212
upperback 9.0578 -3.85951 1.13611
thorax 9.2486 -1.66571 -1.15147
lowerneck -2.32659 10.4292 2.8077
upperneck -0.519746 13.9355 -8.53216
head 1.098 6.92568 -2.86793
rclavicle 1.59028e-014 -2.78299e-015
rhumerus -56.5128 1.57094 -89.1594
rradius 48.5277
rwrist -4.0532
rhand -18.3918 22.0716
rfingers 7.12502
rthumb 7.89215 -7.76108
lclavicle 1.59028e-014 -2.78299e-015
lhumerus -22.1461 -37.5547 89.6874
lradius 102.087
lwrist -8.08598
lhand -46.3383 -22.1225
lfingers 7.12502
lthumb -19.071 6.96252
rfemur -48.0254 -8.23777 17.5033
rtibia 54.3519
rfoot -6.21786 18.4446
rtoes -24.2913
lfemur 12.3404 -8.43979 -18.4215
ltibia 23.7104
lfoot -4.65997 -9.41605
ltoes -19.3506
124
root -28.8601 18.7755 -16.3005 -1431.78 -2.69731 -6.41382
lowerback 0.13144 -2.71249 4.1674
upperback 8.95094 -3.9692 1.29546
thorax 9.19165 -1.69231 -1.2523
lowerneck -2.37213 10.5425 2.83345
upperneck -0.0522868 14.1194 -8.70403
head 1.28504 7.00333 -2.90372
rclavicle 5.10877e-014 -9.93923e-015
rhumerus -56.4536 1.56295 -88.953
rradius 49.152
rwrist -4.74088
rhand -18.8317 22.3356
rfingers 7.12502
rthumb 7.4676 -7.51262
lclavicle 5.10877e-014 -9.93923e-015
lhumerus -22.9823 -38.0719 90.1041
lradius 101.857
lwrist -7.94472
lhand -46.0642 -21.6717
lfingers 7.12502
lthumb -18.8074 7.43912
rfemur -47.2229 -8.14347 17.669
rtibia 53.4575
rfoot -5.3575 18.5653
rtoes -23.9593
lfemur 11.921 -8.4079 -18.0156
ltibia 25.3543
lfoot -2.63271 -9.33112
ltoes -19.9213
125
root -28.8827 18.7951 -16.084 -1431.77 -2.42888 -6.7153
lowerback -0.0393124 -2.72536 4.65694
upperback 8.85309 -4.02965 1.4616
thorax 9.16613 -1.69265 -1.35787
lowerneck -2.4103 10.6137 2.75318
upperneck 0.336709 14.2453 -8.83408
head 1.43075 7.05363 -2.91386
rclavicle 3.24019e-014 8.74653e-015
rhumerus -56.3108 1.55525 -88.7311
rradius 49.8183
rwrist -5.46613
rhand -19.3972 22.4542
rfingers 7.12502
rthumb 6.92176 -7.41261
lclavicle 3.24019e-014 8.74653e-015
lhumerus -23.8315 -38.6188 90.6241
lradius 101.537
lwrist -7.57697
lhand -45.746 -21.1121
lfingers 7.12502
lthumb -18.5014 8.02807
rfemur -46.3635 -7.93359 17.7926
rtibia 52.5777
rfoot -4.49251 18.7162
rtoes -23.6741
lfemur 11.3418 -8.40955 -17.6446
ltibia 27.329
lfoot -0.611715 -9.07246
ltoes -19.695
126
root -28.9064 18.803 -15.8682 -1431.79 -2.15437 -7.02547
lowerback -0.161219 -2.70523 5.21899
upperback 8.74425 -4.04294 1.58132
thorax 9.09471 -1.66391 -1.54602
lowerneck -2.41909 10.6383 2.71804
upperneck 0.702877 14.3061 -8.91335
head 1.55966 7.07269 -2.92049
rclavicle -1.39149e-015 1.59028e-015
rhumerus -56.1767 1.42681 -88.5791
rradius 50.5121
rwrist -6.09311
rhand -20.2348 22.499
rfingers 7.12502
rthumb 6.11315 -7.39283
lclavicle -1.39149e-015 1.59028e-015
lhumerus -24.8038 -39.256 91.128
lradius 101.229
lwrist -7.13022
lhand -45.3412 -20.5335
lfingers 7.12502
lthumb -18.112 8.64326
rfemur -45.396 -7.62211 17.8726
rtibia 51.7118
rfoot -3.70304 18.9178
rtoes -23.2847
lfemur 10.6885 -8.52588 -17.341
ltibia 29.5902
lfoot 1.20732 -8.61832
ltoes -19.0476
127
root -28.9283 18.7983 -15.6535 -1431.84 -1.88605 -7.33539
lowerback -0.273525 -2.69912 5.79967
upperback 8.647 -4.07465 1.67422
thorax 9.0271 -1.64203 -1.7736
lowerneck -2.35293 10.7009 2.65738
upperneck 0.930613 14.4068 -8.89982
head 1.62254 7.11796 -2.89926
rclavicle -2.18663e-015 -1.27222e-014
rhumerus -56.0131 1.33661 -88.5048
rradius 51.2948
rwrist -6.66094
rhand -21.173 22.3621
rfingers 7.12502
rthumb 5.20727 -7.55394
lclavicle -2.18663e-015 -1.27222e-014
lhumerus -25.8665 -39.6733 91.7299
lradius 100.813
lwrist -6.72126
lhand -44.8366 -20.173
lfingers 7.12502
lthumb -17.6264 9.04807
rfemur -44.3137 -7.2031 17.9024
rtibia 50.8481
rfoot -2.84867 19.05
rtoes -22.239
lfemur 9.92853 -8.67652 -17.0825
ltibia 32.1004
lfoot 2.91293 -7.94886
ltoes -18.1416
128
root -28.9471 18.7806 -15.4396 -1431.93 -1.61588 -7.62475
lowerback -0.345857 -2.71719 6.31946
upperback 8.57917 -4.13617 1.78622
thorax 8.97163 -1.64027 -1.9478
lowerneck -2.28972 10.7878 2.70625
upperneck 1.06452 14.5367 -9.05088
head 1.68156 7.17902 -2.95039
rclavicle 9.93923e-016 -3.18055e-015
rhumerus -55.7878 1.40661 -88.4788
rradius 52.1194
rwrist -7.22723
rhand -22.357 22.2232
rfingers 7.12502
rthumb 4.06408 -7.71777
lclavicle 9.93923e-016 -3.18055e-015
lhumerus -26.9635 -39.9111 92.3942
lradius 100.308
lwrist -6.42714
lhand -44.4118 -19.9459
lfingers 7.12502
lthumb -17.2176 9.31129
rfemur -43.096 -6.72703 17.8754
rtibia 49.9973
rfoot -1.96324 19.2347
rtoes -20.5523
lfemur 9.09005 -8.73901 -16.8356
ltibia 34.7973
lfoot 4.47084 -7.17466
ltoes -17.5581
129
root -28.9632 18.7524 -15.2272 -1432.07 -1.30057 -7.92428
lowerback -0.390901 -2.74726 6.86053
upperback 8.5502 -4.2164 1.91432
thorax 8.94215 -1.64572 -2.11694
lowerneck -2.34945 10.8801 2.75021
upperneck 1.25268 14.68 -9.23838
head 1.78432 7.24166 -3.00307
rclavicle -2.38542e-015 -4.77083e-015
rhumerus -55.4752 1.49874 -88.4376
rradius 52.9656
rwrist -7.80969
rhand -23.5025 22.1945
rfingers 7.12502
rthumb 2.95784 -7.7647
lclavicle -2.38542e-015 -4.77083e-015
lhumerus -28.0739 -40.0812 93.1184
lradius 99.7036
lwrist -6.30515
lhand -44.0806 -20.0479
lfingers 7.12502
lthumb -16.8988 9.23689
rfemur -41.7436 -6.22799 17.8518
rtibia 49.167
rfoot -1.5366 19.6026
rtoes -19.7013
lfemur 8.15665 -8.7441 -16.5328
ltibia 37.6571
lfoot 5.84716 -6.19834
ltoes -16.8203
130
root -28.9787 18.712 -15.015 -1432.27 -1.01556 -8.21372
lowerback -0.395692 -2.74547 7.38073
upperback 8.53643 -4.25035 2.04625
thorax 8.91125 -1.63033 -2.26507
lowerneck -2.32683 10.9418 2.79123
upperneck 1.33569 14.7771 -9.46435
head 1.83911 7.28572 -3.07792
rclavicle -4.8901e-014 3.10104e-014
rhumerus -55.2153 1.50201 -88.3399
rradius 53.927
rwrist -8.31068
rhand -24.4993 22.2742
rfingers 7.12502
rthumb 1.99515 -7.69623
lclavicle -4.8901e-014 3.10104e-014
lhumerus -29.2508 -40.213 93.9626
lradius 98.9841
lwrist -6.29089
lhand -43.8514 -20.3509
lfingers 7.12502
lthumb -16.6781 8.9526
rfemur -40.2889 -5.69573 17.8316
rtibia 48.3828
rfoot -1.5854 20.2041
rtoes -19.8157
lfemur 7.21342 -8.68093 -16.231
ltibia 40.6323
lfoot 6.80494 -5.0286
ltoes -15.8089
131
root -28.9937 18.6616 -14.8039 -1432.5 -0.728977 -8.52507
lowerback -0.386967 -2.71408 7.91844
upperback 8.55405 -4.24583 2.1724
thorax 8.91047 -1.59282 -2.42583
lowerneck -2.17277 10.9901 2.85034
upperneck 1.26155 14.8444 -9.69778
head 1.81966 7.32321 -3.17209
rclavicle 2.87244e-014 -1.07344e-014
rhumerus -54.8949 1.40075 -88.2525
rradius 54.9452
rwrist -8.73442
rhand -25.2765 22.2832
rfingers 7.12502
rthumb 1.24456 -7.69291
lclavicle 2.87244e-014 -1.07344e-014
lhumerus -30.4514 -40.3956 94.8032
lradius 98.2216
lwrist -6.32353
lhand -43.682 -20.9541
lfingers 7.12502
lthumb -16.515 8.36309
rfemur -38.7608 -5.10957 17.8525
rtibia 47.6634
rfoot -2.03099 20.8343
rtoes -20.2715
lfemur 6.29823 -8.6243 -15.913
ltibia 43.6813
lfoot 7.37449 -3.62606
ltoes -14.1105
